<?xml version="1.0" encoding="utf-8"?>
<!-- Generator: Adobe Illustrator 25.2.0, SVG Export Plug-In . SVG Version: 6.00 Build 0)  -->
<svg version="1.1" baseProfile="tiny" xmlns="http://www.w3.org/2000/svg" xmlns:xlink="http://www.w3.org/1999/xlink" x="0px"
	 y="0px" viewBox="0 0 620.2 620.2" overflow="visible" xml:space="preserve">
<g id="Layer_1" display="none">
	<g display="inline">
		<g>
			<path d="M1547.5,615.7c6.4-7.2,13.5-14.1,20.4-20.8c0,0,0.1-0.1,0.1-0.1c7.7-9.5,20.9-17.4,32.3-10.3c0.4,0.4,1,0.5,0.6,1.7
				c-7.9,24-32.2,34.2-56.1,36.4c-1.3,0.1-2-1.4-1.2-2.3C1544.9,618.7,1546.2,617.2,1547.5,615.7z M1284.2,725.3
				c-5.6,2.1-19,7.2-24.5,9.7c-17.3,8.2-37.7,23.9-33.1,46.8c7,30.5,35.6,52.7,66.9,51.5c57.8-1.7,131.2-39.6,161.1-89.9
				c9.1-15.1,10.5-31.3,6.9-46.8c-0.2-0.7,0.3-1.5,1-1.7c9-2.4,17.8-5.1,26.7-7.8c1-0.3,1.9,0.5,1.8,1.5c-2.1,15.1-0.6,30.6,7,43.8
				c2.2,3.8,5,7.4,8.6,10.1c23.5,18,63.2-4.1,90.6-22.8c1.1-0.8,2.6,0.4,2.1,1.7c-0.4,1.1-0.9,2.3-1.3,3.4c0,0,0,0.1,0,0.2
				c-2.2,8.8-10.5,20.4-3.8,28.9c2.9,3.2,8.6,2.6,11.3-0.1c27.7-29.8,103.2-170.8,151.8-162.8c1,0.2,1.5,1.3,1,2.1
				c-9.8,15.4-23,29.1-33.3,44.3c-19,29-40.9,59.4-44,95.2c-1.7,16.4,9.3,31.4,26.4,22.3c22.9-13.3,38.6-35.9,54.8-56
				c7.4-9.8,14.6-19.7,21.7-29.8c1-1.4,3.2-0.1,2.4,1.4c-2.2,4.4-4.4,8.8-6.6,13.2c-8.4,18.2-17.5,36.7-19.7,57.1
				c-1.4,12,4.9,23.3,18.2,18.6c0.1,0,0.1-0.1,0.2-0.1c34.4-17.9,71.6-55.7,102.7-87.4c1-1,2.6-0.1,2.4,1.2
				c-9.6,51.8-8.4,101.6,23.2,124.2l0.6-0.8c-49.6-48.4,24.8-193.1,49.1-246.9c0.8-1.6,1.5-3.1,2.3-4.7c0.3-0.6,0.9-0.9,1.6-0.7
				c16.6,3.8,33.1,7.7,49.6,11.3l0.3-0.9c-14.9-6.2-30.1-12.4-45.6-18.2c-0.8-0.3-1.1-1.2-0.8-1.9c7.4-14.8,15-29.5,22.8-44
				c0,0,0-0.1,0.1-0.1c4.9-7.1,8.4-19.5-0.6-25.1c0,0-12.3-6.7-12.3-6.7c-10-4.6-18.5,6.2-21.4,14.6c0,0,0,0.1,0,0.1
				c-7.7,16.5-15.1,33.3-22,50.1c-0.3,0.7-1,1-1.7,0.8c-38.6-11.8-78.3-19.1-118.6-16.3c-37.9,3.3-59.9,34.8-34.1,67.3l0.1-0.1
				c-20.2-61.9,53.4-53.8,92.4-49c18.4,2.5,36.7,5.9,55,9.8c0.8,0.2,1.3,1,1,1.8c-10.8,28.6-29.1,77.1-39.2,125.3
				c-0.1,0.3-0.2,0.6-0.4,0.7c-26.3,22.6-59.2,50.5-83.2,67.3c-8.1,5-16.2,11.5-25.1,14.2c-0.9,0.3-1.9-0.5-1.8-1.5
				c0-0.1,0-0.3,0-0.4c0-0.1,0-0.2,0-0.3c12.1-45.7,42-85.4,67.5-124.7c7.3-9.9,14.3-21.4,22.6-30.5c0.1-0.1,0.1-0.1,0.2-0.2
				c1.5-1.1,5.3-2.1,2.9-4.4c-31.2-19.4-19.8-22.7-35.3,2.9c-7.4,13-14.9,26-22.3,39.1c0,0.1-0.1,0.1-0.1,0.2
				c-22.1,27.8-91.1,116.3-111.9,116.1c-0.7,0-1.3-0.6-1.3-1.3c-1.5-40.4,50.7-92.8,69.5-129c4-8.1,11.9-16.9,8.8-26.8
				c-0.1-0.2-0.1-0.4-0.3-0.5c-11.9-15.2-34.7-3.4-46.7,5.7c-25.5,18.9-43.1,35-59.8,53.7c0,0-0.1,0.1-0.1,0.1
				c-7,6-14.7,12.6-22.9,19.5c-1.1,0.9-2.8-0.3-2.2-1.6c9-21.1,16.4-37.1,29.7-63.6c0,0,1.1-2.1,1.4-2.8c0.1-0.1,0.1-0.3,0.1-0.4
				c0.6-3.2,9.2-6,5.7-8.1c0,0-20.8-9.8-20.8-9.8c-1.9-0.8-2.4,1.5-1.8,2.9c0.9,3.5-0.8,6.9-2.2,10c-13.9,33.9-29.3,67-43.6,100.7
				c-0.1,0.2-0.2,0.4-0.4,0.6c-27.5,21.5-55.8,40.8-76.9,46.7c-14.3,4-29.3-4.6-32.9-19.1c-3-11.9-1.8-23.9,1.8-35.6
				c0.1-0.4,0.5-0.8,0.9-0.9c6.9-2.2,13.8-4.4,20.8-6.5c1-0.3,0.4-1.7-0.4-1.4c-5.8,1.5-11.7,3.1-17.5,4.7c-1.1,0.3-2.1-0.8-1.7-1.9
				c6-15.3,16-30.1,26.4-43.2c0.3-0.4,0.7-0.5,1.2-0.5c1.2,0.1,2.5,0.1,3.7,0.2c17.7,0.4,35.8-4,50.2-14.6
				c10.5-7.7,18.4-18.6,22.8-30.8c2.9-7.6-4.4-13.9-10.6-16.5c-18.8-9.2-39.3,2.6-51.3,17.2c-18.8,20-35.6,42.1-47.1,67.2
				c-3.8,8.1-7,17.1-8.9,26.3c-0.1,0.5-0.5,0.9-1,1.1c-9.9,2.7-19.8,5.3-29.7,7.6c-0.7,0.2-1.4-0.2-1.6-0.9
				c-7.6-23.1-26.4-43.7-47.7-55c-0.3-0.2-0.6-0.3-0.9-0.5c-5-3.4-11.2-6.2-15.2-10.4c-2.2-2.4-3.2-5.6-2.7-8.8
				c2.1-12.6,14.4-22.2,23.3-31.2c0.1-0.1,0.3-0.3,0.4-0.4c16.4-14.6,34.4-27.4,52.4-40.4c0.2-0.2,0.4-0.3,0.6-0.5
				c17.3-14.7,74.9-45.2,62.7-71.8c-0.4-0.9-0.9-1.7-1.6-2.5c-19.5-22.8-51.9-29.2-80.4-30.5c-8.1-0.3-22.7,0.4-30.7,0.8
				c-56.2,5.5-117.1,27.2-167.1,53c-0.2,0.1-0.3,0.2-0.5,0.3c-27.7,16.4-80.1,42.7-71.7,81.3c8.2,32.3,30.5,59.7,58.3,77.5
				c1,0.6,2,1.1,3.1,1.4c31.1,9.6,10-8.9,2.5-12.1c-0.4-0.2-1-0.5-1.3-0.7c-24.4-15.6-44-40.1-50.8-68.5c-0.1-0.4-0.2-0.7-0.2-1.1
				c-5.7-41.1,97.7-75.6,129.4-88.7c0.2-0.1,0.3-0.1,0.5-0.2c21.4-7.4,56.6-18.8,85.4-25.4c39.9-7.3,87.3-8.2,113.5,15.4
				c2.5,2.3,3.8,5.6,3.4,8.9c-5.3,37.3-160.4,82.7-154.9,139.8c2.2,29.1,37.6,34.6,53.6,53.7c0.1,0.2,0.3,0.3,0.4,0.5
				c6.3,6.4,10.7,12.9,13.4,19.4c-0.6,1.1-0.9,1.6-1.5,2.7C1387.3,702,1330.4,710.2,1284.2,725.3z M1277,739.3
				c51.8-20.2,139.8-35.2,161.1-38.5c0.4-0.1,0.8-0.2,1.3-0.3c9.1,36.7-31.4,71.4-64.6,90.3c-40,23.6-114.5,49.5-134.3-10.5
				C1236.4,765.4,1256,749.8,1277,739.3z"/>
			<path d="M1919.2,468.3c2.3,2,3.5,3.3,4.8,4.7l1.5,1.7l0.6,0.8c0.2,0.2,0.3,0.5,0.5,0.7c1.1,1.8,1.2,2.8,0.6,3.5
				c-0.9,1.4-1.9,2.9-3,4.2c-2.1,2.8-4.4,5.3-7,7.8c-2.6,2.4-5.5,4.6-8.7,6.6c-3.3,2-6.8,3.8-11.3,5l-1.8-1.2
				c-0.7-4.6-0.4-8.5,0-12.3c0.5-3.8,1.4-7.3,2.5-10.7c1.2-3.3,2.6-6.5,4.3-9.5c0.8-1.5,1.7-3,2.7-4.4c0.4-0.8,1.3-1.2,3.4-0.9
				c0.3,0,0.5,0.1,0.8,0.1l0.9,0.2l2.2,0.7c1.7,0.6,3.4,1.2,6.2,2.5L1919.2,468.3z"/>
		</g>
		<path d="M2154.3,655.4c-2.2-8.2-4.1-16.4-5.1-24.7c12.9-13.8,25.8-27.9,38.3-41.8c1.6-1.8,6.7-7.3,8.2-9c1.5-2.8-2.2-6.5-4-9.3
			c-0.1-0.1-0.3-0.2-0.4-0.3c0,0,0,0,0.1,0c-6.7-8.1-18.8-4.5-26.6-0.2c-17.1,9.1-26.2,27.4-30.4,45.8c-13.3,14.3-26.5,28.7-39,42.7
			c-16.4,18.4-37.6,42.7-55.3,63c-2.5-1.7-4.8-3.3-7-4.8c-0.5-0.4-2-1.5-2.4-1.8c-0.6-0.7-1.2-0.3-1.7,0.4c2.3,2.9,4.7,5.7,7.3,8.5
			c-19.1,8.7-36.1,14.4-49.4,15.4c-12.8,1-24.5-7.6-27.7-20c-7.7-30,10.8-60.6,30.6-85.7c31.7,2.7,66.1-12.9,77.1-44.2
			c1.2-2.6,1.3-5.9,0.1-8.5c-6.6-11.4-22.3-13.9-34.3-10.9c-18.1,5.1-29,21.3-41.1,34.5c-26.1,32.3-56.6,79.9-39.3,121.6
			c5.2,12.4,16.7,21.1,30.1,22c12.1,0.8,26.5-2.3,41.3-7.5c-3.4,3.9-6.9,8-8.7,10c-3.6,3.7-4.8,5.3-1.2,10c2,1.3,5.2,3,7,1
			c1.7-1.6,7-7,8.7-8.6c5.9-5.8,11.9-11.8,18-17.9c39.2,35.1,98.8,54.8,114.4-15.2c4.2-18.2,0.3-35.7-4.4-53.1
			c11.9-8.3,23.7-16.7,35.2-25.4c15.3-12.8,34.5-24.4,46.9-39.1C2224.5,609.1,2192,631,2154.3,655.4z M2024.9,594.8
			c7.7-9.7,21.3-17.7,32.8-10.1c0.2,0.2,0.3,0.4,0.3,0.9c-8.1,25.5-34.6,35.6-59.6,37.2c2.1-2.4,4.1-4.8,6.1-7.1
			C2010.9,608.5,2018,601.6,2024.9,594.8z M2168.3,577c1.5-0.8,3-1.4,4.5-1.8c0,0,0,0,0,0c-6,6.2-12.1,12.5-18.2,18.9
			C2157.3,587.2,2161.6,581.1,2168.3,577z M2132.2,648.7c0.3-0.3,0.6-0.6,0.9-0.9c0.7,6.5,1.7,12.9,2.8,19.4
			c-17.4,11.1-35.5,22.2-53.2,32.3C2099.7,682.3,2116.6,665.1,2132.2,648.7z M2129.8,733.4c-20.2,25.1-52,11.8-77.4-3.8
			c0.8-0.8,1.6-1.6,2.5-2.5c22.5-10.8,43-23.1,54.9-29.8c9.4-5.7,18.7-11.6,27.8-17.6C2140.1,698.5,2140.4,716.7,2129.8,733.4z"/>
	</g>
	<path display="inline" d="M1355.6,520.8l-86.4,242.1l-2.9-1.1l0,0c13.6-40.7,29.1-80.7,45.2-120.4c8.1-19.8,16.4-39.6,24.8-59.2
		c8.4-19.7,17.1-39.2,25.9-58.7l13.3-29.2l13.4-29.2c8.9-19.5,17.9-38.9,26.7-58.4c8.8-19.5,17.4-39.1,26-58.8l12.8-29.5l3.2-7.4
		l1.6-3.7c0.6-1.2,1.1-2.5,1.4-3.8c0.8-2.6,1.1-5.5,0.7-8.7c-0.2-1.6-0.4-3.3-0.9-5.1c-0.5-1.8-1.2-3.7-2.3-5.9l36.9,19.1
		c-2.4,0.2-4.2,0.7-5.9,1.3c-1.7,0.6-3.2,1.3-4.5,2.1c-2.7,1.6-4.7,3.6-6.3,5.7c-0.8,1.1-1.4,2.3-2,3.4l-1.8,3.6l-3.6,7.1
		c-4.8,9.5-9.5,19.1-14.1,28.7c-9.2,19.3-18.2,38.7-26.8,58.2c-8.7,19.5-17.1,39.2-25.5,58.9l-25.2,59c-8.4,19.7-17,39.3-25.8,58.8
		c-8.7,19.5-17.6,39-26.7,58.4c-18.2,38.7-36.9,77.2-57.4,115l0,0l-2.9-1.1l76.3-245.5L1355.6,520.8z"/>
	<path display="inline" d="M1300,534.9c0.3-0.6,0.7-0.9,1.2-1.1l1.4-0.5l2.8-1l5.6-2l11.2-4c3.7-1.3,7.4-2.7,11-4.2
		c1.8-0.7,3.6-1.5,5.4-2.3c0.9-0.4,1.7-0.9,2.5-1.3c0.8-0.5,1.6-1.1,1.9-1.7l1,0.3c-0.2,0.6-0.5,1.2-0.8,1.6
		c-0.4,0.4-0.7,0.8-1.1,1.1c-0.8,0.7-1.7,1.2-2.5,1.8c-1.7,1.1-3.5,2-5.4,2.8c-3.7,1.7-7.4,3-11.1,4.4c-3.8,1.3-7.5,2.6-11.3,3.8
		l-5.7,1.7l-2.8,0.9l-1.4,0.4c-0.5,0.1-1,0.2-1.6-0.1L1300,534.9z"/>
</g>
<g id="Layer_2">
	<circle fill="#FFFFFF" cx="310.1" cy="310.1" r="310.1"/>
	<path d="M477.3,381c-1.9-0.1-7.5,2.3-12.2,3.6l-25.6,6.9c-4.1,1.7-11.3,2.7-25.7,6.3c-15-34.4-34.6-47.1-65.4-66.8
		c-21-43.1,152.7-107.6,137.2-151.4c-0.8-2.3-2.3-4.4-4-6.2c-27.8-29-73.3-30.1-110.9-27.5c1.1-2.3,14.9-31,17.4-36.2
		c0,0.1-0.1,0.1-0.1,0.2c5.1-10.3,19.1-11.7,13.2-15.4c-32.5-15.3-27.8-20.3-28.5-1.3c-0.1,3-0.8,5.9-2,8.7l-18.6,46.4
		c-102.9,20.1-322.8,95.5-160.8,209.4c30.3,12.2,18.2-5.2,5.6-10.6C50.3,244.6,276.3,182.5,343.7,166.5
		c-24.6,53.3-49.6,108.4-72,162.6c0,0,36.4-101.8,36.3-101.8c0,0-12.9-4.3-12.9-4.3c-8,7.3-21.8,9.3-31.7,13.8
		c-1.8,0.7-6.6,2.4-8.4,3.1c-0.9,0.4-2.1,0.5-2.6,1.6c0.6,1.2,2.3,0.2,3.1,0c13-4.3,27-7.4,38.5-15l-64.7,208.2
		c-24.3,9-54.7,22.7-50.2,53.7c31.3,116.9,255.1,8.6,234.9-85.2c-0.2-0.7,0.3-1.5,1-1.7c8.4-2.3,16.7-4.8,25-7.3l24.1-7.6
		C471,384.8,480.1,382.4,477.3,381z M279,354.6c29.1-61.7,57.3-128.5,84.2-191.4c37-5.1,92.6-11.2,110.9,18.3c2,3.2,2,7.3,0,10.5
		c-35.3,57.8-250.3,105-98.6,188.3c9.4,5.2,15.8,14,15.2,22.3c-46.2,5.5-103.3,13.5-148.4,27.4C255,405.1,267.2,379.9,279,354.6z
		 M327.1,497.4c-86.2,60.8-187.6-1.7-102.1-49.3l-6.3,20.3c0,0.1,2.8,1.1,2.9,1.1c4.7-8.6,9.2-17.2,13.7-25.9
		c53.5-19.5,134.6-32.9,156.4-36.5C396.1,443.9,360.4,478.6,327.1,497.4z"/>
</g>
</svg>
