<?xml version="1.0" encoding="utf-8"?>
<!-- Generator: Adobe Illustrator 24.1.3, SVG Export Plug-In . SVG Version: 6.00 Build 0)  -->
<svg version="1.2" baseProfile="tiny" id="Layer_1" xmlns="http://www.w3.org/2000/svg" xmlns:xlink="http://www.w3.org/1999/xlink"
	 x="0px" y="0px" viewBox="0 0 841.9 364.8" overflow="visible" xml:space="preserve">
<path fill="#010101" d="M173.8,53.7c-81.9,16-256.8,76-127.9,166.6c24.1,9.7,14.5-4.1,4.5-8.4C-66.3,130.3,113.5,80.9,167.2,68.2
	c-19.6,42.4-39.5,86.3-57.3,129.4c0,0,28.9-81,28.9-81c0,0-10.3-3.4-10.3-3.4c-6.3,5.8-17.4,7.4-25.2,11c-1.5,0.5-5.3,1.9-6.7,2.4
	c-0.7,0.3-1.7,0.4-2.1,1.3c0.5,1,1.8,0.1,2.5,0c10.3-3.4,21.4-5.9,30.6-12L76.1,281.5c-19.4,7.1-43.5,18.1-40,42.8
	c24.9,93,203,6.8,186.9-67.8c-0.1-0.6,0.2-1.2,0.8-1.3c7.1-1.9,14.2-4.1,21.2-6.2c0.8-0.2,1.5,0.4,1.4,1.2
	c-2.1,15.1,0.3,32.6,12.4,42.9c18.7,14.3,50.3-3.3,72.1-18.1c0.9-0.6,2.1,0.3,1.7,1.3c-2,7.8-9.7,18.1-4.1,25.8c2.3,2.5,6.9,2,9-0.1
	c21.5-22.1,85-142,121.5-127.9c-24,34.3-56.3,67.5-61.5,111c6.1,60.6,70.1-34,81.8-50.5c5.7-2.4-3.2,9.8-3.3,11.7
	c-53.4,118.7,44.3,31.2,80.6-9.4c-1,37.5-8.5,81,20.4,99.8l0.5-0.6c-39.5-38.5,19.7-153.6,39.1-196.4c1-1.3,1.2-4.3,3.1-4.3
	c13.2,3,26.3,6.1,39.5,9l0.3-0.8c-11.9-5-24-9.9-36.3-14.4c-0.6-0.2-0.9-0.9-0.6-1.5c5.9-11.8,12-23.5,18.2-35.1
	c8.6-13.7,2.8-19.6-10.3-25.3c-16.7-7.7-27.6,40.3-34.5,51.6c-36.9-10.8-164.1-35-122.8,41.3l0.1,0c-16.2-66.7,81.5-35.8,117.3-31.2
	c-5,23.2-23.3,62.7-30.7,101.7c-29.1,23.6-55.3,50.2-86.1,64.8c2.9-34.6,33.9-69.9,52.3-100.9c5.9-8,11.4-17.2,18.2-24.5
	c1.2-0.9,4.2-1.7,2.3-3.5c-24.8-15.4-15.7-18.1-28.1,2.3c-5.9,10.3-11.9,20.8-17.8,31.2c-87.8,117.2-131.6,126-34.8-11.3
	c3.2-6.5,9.9-13.9,6.8-21.7c-28.1-25.5-81.4,49.8-103,62.9c-0.9,0.8-2.2-0.2-1.7-1.3c7.1-16.8,13-29.5,23.6-50.6
	c6.6-12.6,13.9-4.3-10.8-16.7c-9.2,28.4-25.6,60.8-37.9,90.3c-21.5,17.4-44.8,32.8-61.5,37.6c-25.4,6.6-33.3-26.5-24-44.2
	c1.9-1.2,19.5-4.6,16.2-6.3c-2.8-0.1-15.5,6.2-15.2,2.3c3.5-7.4,16.2-35.4,24.9-34.7c14.1,0.3,28.5-3.2,40-11.6
	c10.4-7.9,29.2-29.9,9.7-37.7c-34.9-13.7-64.3,42-78.3,67.2c-11,27.1-1.2,20.3-31.5,27.8c-11.9-27.3-27.5-37.5-52-53.2
	c-16.7-34.3,121.5-85.6,109.2-120.5c-0.7-1.9-1.8-3.5-3.2-5c-22.1-23.1-58.3-24-88.2-21.9c1.1-2.2,16.8-35,13.7-28.6
	c4.1-8.2,15.2-9.3,10.5-12.3c-25.8-12.2-22.1-16.1-22.7-1c-0.1,2.4-0.6,4.7-1.6,6.9L173.8,53.7z M288.3,195.7
	c9.3-9.1,32.5-41.8,45.6-27.2c-6.3,19.1-25.6,27.2-44.6,29C288.2,197.6,287.6,196.4,288.3,195.7z M115.7,217.8
	c23.1-49.1,45.6-102.2,67-152.2c29.4-4.1,73.7-8.9,88.3,14.6c1.6,2.5,1.6,5.8,0,8.4c-28.1,46-199.2,83.5-78.5,149.8
	c7.5,4.1,12.6,11.1,12.1,17.7c-36.8,4.4-82.2,10.7-118.1,21.8C96.6,258,106.3,237.9,115.7,217.8z M154,331.4
	c-68.6,48.4-149.2-1.4-81.2-39.2l-5,16.1c0,0,2.3,0.9,2.3,0.9c3.7-6.8,7.3-13.7,10.9-20.6c42.6-15.5,107.1-26.2,124.4-29
	C208.8,288.8,180.4,316.4,154,331.4z"/>
<path fill="#010101" d="M569.6,102.6c3.5-1,6.3-2.4,9-4c2.6-1.6,4.9-3.4,7-5.3c2.1-1.9,3.9-4,5.6-6.2c0.8-1.1,1.6-2.2,2.4-3.4
	c0.5-0.5,0.5-1.3-0.5-2.8c-0.1-0.2-0.2-0.3-0.4-0.5l-0.4-0.6l-1.2-1.4c-1-1.1-2-2.1-3.8-3.7l-0.7-0.4c-2.2-1-3.6-1.5-4.9-2l-1.7-0.5
	l-0.7-0.2c-0.2-0.1-0.4-0.1-0.6-0.1c-1.7-0.3-2.4,0.1-2.7,0.7c-0.8,1.1-1.5,2.3-2.1,3.5c-1.3,2.4-2.5,4.9-3.4,7.6
	c-0.9,2.7-1.6,5.5-2,8.5c-0.4,3-0.6,6.2,0,9.8L569.6,102.6z"/>
<path fill="#010101" d="M774.1,223.7c-1.7-6.5-3.3-13.1-4-19.6c10.3-11,20.5-22.2,30.4-33.2c1.3-1.5,5.3-5.8,6.5-7.2
	c1.2-2.2-1.8-5.2-3.2-7.4c-0.1-0.1-0.2-0.2-0.3-0.2c0,0,0,0,0,0c-5.3-6.5-15-3.6-21.2-0.1c-13.6,7.3-20.8,21.8-24.2,36.4
	c-10.6,11.3-21.1,22.8-31.1,33.9c-13,14.6-29.9,33.9-44,50.1c-2-1.3-3.8-2.6-5.6-3.8c-0.4-0.3-1.6-1.2-1.9-1.4
	c-0.5-0.6-0.9-0.3-1.4,0.3c1.8,2.3,3.7,4.6,5.8,6.8c-15.2,6.9-28.7,11.5-39.3,12.3c-10.2,0.8-19.5-6-22-15.9
	c-6.1-23.9,8.6-48.2,24.4-68.1c25.2,2.1,52.6-10.2,61.4-35.2c1-2.1,1.1-4.7,0.1-6.8c-5.3-9.1-17.8-11-27.3-8.7
	c-14.4,4-23.1,17-32.7,27.4c-20.8,25.7-45.1,63.6-31.3,96.7c4.1,9.9,13.3,16.8,24,17.5c9.6,0.6,21.1-1.9,32.8-5.9
	c-2.7,3.1-5.5,6.3-6.9,7.9c-2.9,2.9-3.8,4.3-1,8c1.6,1.1,4.2,2.4,5.6,0.8c1.3-1.3,5.5-5.6,6.9-6.8c4.7-4.6,9.4-9.4,14.3-14.2
	c31.2,27.9,78.6,43.6,91-12.1c3.4-14.5,0.2-28.4-3.5-42.2c9.5-6.6,18.8-13.3,28-20.2c12.2-10.2,27.4-19.4,37.3-31.1
	C830,186.8,804.2,204.3,774.1,223.7z M785.4,161.3c1.2-0.6,2.4-1.1,3.6-1.4c0,0,0,0,0,0c-4.8,4.9-9.6,10-14.5,15.1
	C776.6,169.4,780,164.6,785.4,161.3z M655,192.1c5.1-5.8,10.8-11.2,16.3-16.6c6.2-7.7,16.9-14.1,26.1-8c0.2,0.2,0.3,0.3,0.3,0.7
	c-6.4,20.2-27.5,28.3-47.4,29.6C651.8,195.8,653.4,193.9,655,192.1z M756.6,218.3c0.2-0.2,0.5-0.5,0.7-0.7
	c0.6,5.1,1.4,10.3,2.2,15.4c-13.9,8.8-28.3,17.7-42.4,25.7C730.7,245.1,744.2,231.4,756.6,218.3z M754.7,285.7
	c-16.1,19.9-41.3,9.4-61.5-3c0.7-0.7,1.3-1.3,2-2c17.9-8.6,34.2-18.3,43.7-23.7c7.5-4.5,14.9-9.2,22.1-14
	C762.9,257.9,763.1,272.4,754.7,285.7z"/>
</svg>
